<svg viewBox="0 0 2732 1738" xmlns="http://www.w3.org/2000/svg" xmlns:xlink="http://www.w3.org/1999/xlink" xml:space="preserve" overflow="hidden"><defs><clipPath id="clip0"><rect x="834" y="363" width="2732" height="1738"/></clipPath></defs><g clip-path="url(#clip0)" transform="translate(-834 -363)"><rect x="834" y="363" width="2732" height="1738" fill="#FFFFFF"/><path d="M1334.59 1097C1334.59 1174.72 1271.5 1238 1194 1238M1334.59 1097C1334.59 1019.28 1397.69 956 1475.19 956L1552 956" stroke="#404040" stroke-width="13.75" stroke-miterlimit="8" fill="none" fill-rule="evenodd"/><path d="M1697 956C1697 995.765 1664.54 1028 1624.5 1028 1584.46 1028 1552 995.765 1552 956 1552 916.236 1584.46 884 1624.5 884 1664.54 884 1697 916.236 1697 956Z" stroke="#404040" stroke-width="13.75" stroke-miterlimit="8" fill="#EFB2CE" fill-rule="evenodd"/><path d="M2298.95 1379C2298.95 1301.28 2235.7 1238 2158 1238M2298.95 1379C2298.95 1456.72 2362.21 1520 2439.91 1520L3177 1520" stroke="#404040" stroke-width="13.75" stroke-miterlimit="8" fill="none" fill-rule="evenodd"/><path d="M2661 1519.5C2661 1559.54 2628.76 1592 2589 1592 2549.24 1592 2517 1559.54 2517 1519.5 2517 1479.46 2549.24 1447 2589 1447 2628.76 1447 2661 1479.46 2661 1519.5Z" stroke="#404040" stroke-width="13.75" stroke-miterlimit="8" fill="#D9EBF7" fill-rule="evenodd"/><path d="M2991 1519.5C2991 1559.54 2958.76 1592 2919 1592 2879.24 1592 2847 1559.54 2847 1519.5 2847 1479.46 2879.24 1447 2919 1447 2958.76 1447 2991 1479.46 2991 1519.5Z" stroke="#404040" stroke-width="13.75" stroke-miterlimit="8" fill="#D9EBF7" fill-rule="evenodd"/><path d="M3321 1519.5C3321 1559.54 3288.76 1592 3249 1592 3209.24 1592 3177 1559.54 3177 1519.5 3177 1479.46 3209.24 1447 3249 1447 3288.76 1447 3321 1479.46 3321 1519.5Z" stroke="#404040" stroke-width="13.75" stroke-miterlimit="8" fill="#D9EBF7" fill-rule="evenodd"/><path d="M1084 1238 2517 1238" stroke="#404040" stroke-width="13.75" stroke-miterlimit="8" fill="none" fill-rule="evenodd"/><path d="M1084 1237.5C1084 1277.54 1051.54 1310 1011.5 1310 971.459 1310 939 1277.54 939 1237.5 939 1197.46 971.459 1165 1011.5 1165 1051.54 1165 1084 1197.46 1084 1237.5Z" stroke="#404040" stroke-width="13.75" stroke-miterlimit="8" fill="#F9E11E" fill-rule="evenodd"/><path d="M1693 1237.5C1693 1277.54 1660.76 1310 1621 1310 1581.24 1310 1549 1277.54 1549 1237.5 1549 1197.46 1581.24 1165 1621 1165 1660.76 1165 1693 1197.46 1693 1237.5Z" stroke="#404040" stroke-width="13.75" stroke-miterlimit="8" fill="#F9E11E" fill-rule="evenodd"/><path d="M2027 1237.5C2027 1277.54 1994.54 1310 1954.5 1310 1914.46 1310 1882 1277.54 1882 1237.5 1882 1197.46 1914.46 1165 1954.5 1165 1994.54 1165 2027 1197.46 2027 1237.5Z" stroke="#404040" stroke-width="13.75" stroke-miterlimit="8" fill="#F9E11E" fill-rule="evenodd"/><path d="M2661 1237.5C2661 1277.54 2628.76 1310 2589 1310 2549.24 1310 2517 1277.54 2517 1237.5 2517 1197.46 2549.24 1165 2589 1165 2628.76 1165 2661 1197.46 2661 1237.5Z" stroke="#404040" stroke-width="13.75" stroke-miterlimit="8" fill="#F9E11E" fill-rule="evenodd"/><path d="M1341 470 1904 470 1904 642 1341 642 1341 470Z" stroke="#404040" stroke-width="13.75" stroke-linecap="round" stroke-linejoin="round" stroke-miterlimit="10" fill="#EFB2CE" fill-rule="evenodd"/><text font-family="Cascadia Mono SemiBold,Cascadia Mono SemiBold_MSFontService,sans-serif" font-weight="600" font-size="55" transform="matrix(1 0 0 1 1397.92 576)">nieuwe</text><text font-family="Cascadia Mono SemiBold,Cascadia Mono SemiBold_MSFontService,sans-serif" font-weight="600" font-size="55" transform="matrix(1 0 0 1 1590.42 576)">-</text><text font-family="Cascadia Mono SemiBold,Cascadia Mono SemiBold_MSFontService,sans-serif" font-weight="600" font-size="55" transform="matrix(1 0 0 1 1622.5 576)">grafiek</text><text font-family="Cascadia Mono SemiBold,Cascadia Mono SemiBold_MSFontService,sans-serif" font-weight="600" font-size="55" transform="matrix(1 0 0 1 1847.08 576)"> </text><path d="M3037 1833 3461 1833 3461 2005 3037 2005 3037 1833Z" stroke="#404040" stroke-width="13.75" stroke-linecap="round" stroke-linejoin="round" stroke-miterlimit="10" fill="#D9EBF7" fill-rule="evenodd"/><text font-family="Cascadia Mono SemiBold,Cascadia Mono SemiBold_MSFontService,sans-serif" font-weight="600" font-size="55" transform="matrix(1 0 0 1 3152.87 1939)">bugfix</text><text font-family="Cascadia Mono SemiBold,Cascadia Mono SemiBold_MSFontService,sans-serif" font-weight="600" font-size="55" transform="matrix(1 0 0 1 3345.37 1939)"> </text><path d="M1624.48 799.721 1624.48 719M1661.62 769.837 1624.48 806.934 1587 769.837M2589.33 1082.07 2589.33 1001.35M2626.81 1052.19 2589.33 1089.28 2551.85 1052.19M3249.52 1675.28 3249.52 1756M3212.04 1705.16 3249.52 1667.72 3287 1705.16" stroke="#404040" stroke-width="13.75" stroke-linecap="round" stroke-linejoin="round" stroke-miterlimit="10" fill="none" fill-rule="evenodd"/><path d="M2420 751 2750 751 2750 923 2420 923 2420 751Z" stroke="#404040" stroke-width="13.75" stroke-linecap="round" stroke-linejoin="round" stroke-miterlimit="10" fill="#F9E11E" fill-rule="evenodd"/><text font-family="Cascadia Mono SemiBold,Cascadia Mono SemiBold_MSFontService,sans-serif" font-weight="600" font-size="55" transform="matrix(1 0 0 1 2520.83 857)">main</text><text font-family="Cascadia Mono SemiBold,Cascadia Mono SemiBold_MSFontService,sans-serif" font-weight="600" font-size="55" transform="matrix(1 0 0 1 2649.17 857)"> </text></g></svg>